<?xml version="1.0" encoding="UTF-8"?>
<svg id="Layer_2" data-name="Layer 2" xmlns="http://www.w3.org/2000/svg" viewBox="0 0 184.58 184.83">
  <defs>
    <style>
      .cls-1 {
        fill: #fcc200;
      }

      .cls-2 {
        fill: #f9f6ee;
      }
    </style>
  </defs>
  <g id="Layer_1-2" data-name="Layer 1-2">
    <g>
      <g>
        <path class="cls-1" d="M45.36,8.41c-.18.47-.46.86-.84,1.2-2.28,2.07-6.12,4.11-8.73,6.15-6.11,4.75-13.85,12.17-18.12,18.6-1.1,1.66-1.58,3.53,1.13,2.63,5.04-6.78,11.01-12.95,17.71-18.11,1.13-.87,10.2-7.46,11.02-6.62.07.37-.04.56-.23.85-.58.89-7.13,5.09-8.63,6.25-5.82,4.52-13.57,11.81-17.5,18.02-.19.31-.57.72-.66,1.03-.36,1.19.64,2.08,1.8,1.31s4.34-5.39,5.65-6.83c3.85-4.24,8.72-8.48,13.35-11.85,2.48-1.81,5.56-4.34,8.61-4.7-1.38,2.16-4.14,3.38-6.21,4.94-4.21,3.17-8.28,6.57-11.91,10.41-1.2,1.28-7.65,8.66-7.74,9.76-.03.41.44,1.14.84,1.25.28.09.53,0,.8-.07.57-.18,4.94-5.85,5.87-6.86,3.56-3.89,15.4-14.62,20.2-15.56.35-.07.4-.05.32.33-.21,1.08-4.93,3.85-6.08,4.72-6.39,4.84-11.95,10.15-16.82,16.54-1.26,1.66-3.38,5.45-4.7,6.58-.87.75-2.08,1.23-3.23,1.06-.57-.09-.93-.46-1.69-.49-2.6-.09-3.58,2.7-4.48,4.66-7.61,16.47-9.38,36.68-5.56,54.36.78,3.61,3.5,10.16,3.2,13.36-.24,2.49-2.4,4.88-5.05,4.34-3.88-.79-4.66-5.09-5.39-8.29-5.45-23.76-.93-48.59,11.1-69.54.24-1.38.1-2.34-.81-3.4-.38-.44-.95-.49-1.23-1.17-1.17-2.79,1.99-6.6,3.58-8.78,6.45-8.86,15.91-17.91,25.18-23.78,1.58-1,3.3-2.33,5.26-2.3h0Z"/>
        <path class="cls-1" d="M124.32,178.57l-2.75,1.2c-43.6,15.1-91.04-4.61-112.33-44.88-.49-.92-3.99-7.81-3.71-8.17,3.43,1.83,7.11.05,8.52-3.36,2.2,5.81,4.74,11.45,7.94,16.78,12.17,20.23,32.28,34.86,55.34,40.18,15.66,3.61,31.65,2.99,46.99-1.75Z"/>
      </g>
      <g>
        <path class="cls-1" d="M176.88,51.12c-3.41-1.76-6.65-.54-8.44,2.72-.23.42-.25.9-.41,1.27-.47,1.06-.69-.52-.94-1.03C148.46,16.23,109.76-4.8,67.48,4.72c-2.29.52-4.71,1.46-6.94,1.94-.24.05-.84.24-.78-.18,2.25-.53,4.34-1.53,6.53-2.23,36.98-11.68,77.12,1.35,100.84,31.53,3.73,4.75,7.1,9.9,9.74,15.34h0Z"/>
        <path class="cls-1" d="M173.23,52.14c3.46-.42,5.94,3.04,6.94,5.89,7.21,20.51,5.11,47.57-2.87,67.55-1.62,4.06-6.23,11.29-5.6,15.31.31,1.97,1.6,3.4,1.81,5.63,1.35,14.55-18.6,31.5-32.51,30.11-9.03-.9-4.85-12.2-2.49-17.36,3.89-8.51,11.12-18.89,20.85-20.91,3.19-.66,5.86.15,8.41-2.39,2.28-2.27,5.03-11.77,5.92-15.2,4.38-16.78,4.15-34.53-.77-51.17-1.19-4.01-4.01-9.18-3.42-13.26.28-1.93,1.67-3.96,3.73-4.21h0Z"/>
      </g>
      <g>
        <path class="cls-2" d="M68.88,145.21c3.19.7,6.31,1.81,9.55,2.33,20.98,3.4,41.75-4.5,54.63-21.31,30.72-40.11-3.81-100.77-54.7-85.66-26.31,7.81-43.88,32.48-42.6,60-.69.12-.4-.15-.51-.56-3.36-11.77.68-28.25,6.89-38.54,31.61-52.38,116.61-19.51,107.31,42.27-5.35,35.53-44.29,58.66-77.61,43.19-.97-.45-2.24-.96-2.96-1.72Z"/>
        <path class="cls-1" d="M91.6,67.47l.69.2,7.55,16.21c1.05.34,2.17.43,3.26.58,4.44.6,9.56.66,13.87,1.49,2.31.44.2,2.01-.7,2.87-3.73,3.55-7.75,6.81-11.37,10.49l3.33,17.7c-.19,1.18-1.42.27-2.09-.07-4.88-2.49-9.46-5.65-14.36-8.11-4.87,2.37-9.52,5.75-14.36,8.11-1.09.53-2.25,1.43-2.06-.61l3.3-17.02-13.13-12.34.08-.56c.28-.27.61-.4.99-.46,4.56-.74,9.29-.87,13.87-1.49,1.09-.15,2.21-.24,3.26-.58l7.35-15.93.51-.47h0Z"/>
      </g>
    </g>
  </g>
</svg>