<?xml version="1.0" encoding="UTF-8"?>
<svg version="1.1" xmlns="http://www.w3.org/2000/svg" width="512" height="512">
<path d="M0 0 C1.17856317 -0.00480972 1.17856317 -0.00480972 2.3809357 -0.0097166 C5.01171244 -0.01801287 7.64226129 -0.01209362 10.27304173 -0.00622082 C12.17904086 -0.00924166 14.08503879 -0.01313081 15.99103457 -0.01781338 C21.22732218 -0.02811062 26.46354145 -0.02590716 31.6998347 -0.02163279 C37.34750509 -0.01916872 42.99515888 -0.02817573 48.64282322 -0.03567028 C59.70639688 -0.04842791 70.76994629 -0.05020967 81.83352607 -0.04787002 C90.82452218 -0.04608799 99.81551092 -0.04783402 108.80650616 -0.05209446 C110.08546484 -0.05268965 111.36442352 -0.05328484 112.68213852 -0.05389806 C115.28021594 -0.05510979 117.87829335 -0.05632393 120.47637076 -0.05754044 C137.92363798 -0.06532898 155.37090029 -0.06924583 172.81816864 -0.06522369 C173.50038622 -0.06506732 174.1826038 -0.06491094 174.88549464 -0.06474983 C178.34322093 -0.06394405 181.80094721 -0.06309828 185.25867348 -0.06223653 C185.94538565 -0.06206544 186.63209782 -0.06189435 187.33961945 -0.06171808 C188.72831765 -0.06137142 190.11701586 -0.06102289 191.50571407 -0.06067249 C213.11685786 -0.05531455 234.72796085 -0.063248 256.33909702 -0.08170605 C280.62092049 -0.10242085 304.90271117 -0.11311872 329.18454558 -0.10913056 C342.0408405 -0.10721639 354.89709825 -0.10972713 367.7533865 -0.1238451 C378.69721454 -0.13574119 389.64098254 -0.13718366 400.58481138 -0.12505493 C406.16955002 -0.11915398 411.7541787 -0.11810044 417.3389101 -0.13005733 C422.45060493 -0.14087441 427.56209746 -0.13786261 432.67378265 -0.12379565 C434.52363611 -0.12113721 436.37350521 -0.12355108 438.22334336 -0.13153151 C440.73771716 -0.1416265 443.25138624 -0.13322525 445.76573181 -0.12025452 C446.84301764 -0.13121854 446.84301764 -0.13121854 447.94206682 -0.14240405 C456.65993365 -0.04918457 464.37786737 3.64564265 470.94578648 9.25447559 C476.95672344 16.40608077 479.24400644 23.26334658 479.25218296 32.58308887 C479.26050648 33.39683979 479.26882999 34.21059071 479.27740574 35.04900074 C479.3013966 37.72431252 479.31026172 40.39938036 479.31688023 43.07478809 C479.32585053 44.93993164 479.33497245 46.80507446 479.34423923 48.67021656 C479.36069897 52.57218136 479.36842461 56.47406061 479.37132359 60.37605762 C479.37672322 65.37774897 479.41448095 70.37863878 479.46006775 75.38010311 C479.48978372 79.22853522 479.49704585 83.0767723 479.49804974 86.92530918 C479.50225815 88.76974019 479.51471731 90.61417146 479.53556728 92.45848942 C479.56238658 95.03448277 479.55768701 97.60859033 479.54515171 100.18465137 C479.56740314 101.32713337 479.56740314 101.32713337 479.5901041 102.49269581 C479.53748265 106.28485993 479.24287019 107.93201813 476.63488865 110.76274586 C472.96702875 112.79742335 470.92734614 112.36046439 466.94578648 111.25447559 C464.12640073 109.28090557 463.56129158 107.55885722 462.94578648 104.25447559 C462.84381885 101.7645199 462.79179126 99.30140843 462.78807163 96.81136036 C462.78299091 96.06778278 462.77791019 95.32420521 462.77267551 94.55809498 C462.76199382 92.94684041 462.75336505 91.33557121 462.74655628 89.72429562 C462.73474186 87.17274888 462.71528356 84.62136947 462.69343662 82.06989002 C462.6318985 74.81661515 462.57775559 67.56335927 462.54441929 60.30989552 C462.52346694 55.87014282 462.48816309 51.4306986 462.44366169 46.99112225 C462.42951021 45.30110206 462.42078117 43.61102734 462.41760731 41.92095089 C462.41269482 39.55596742 462.3895304 37.19180232 462.36229038 34.82698536 C462.36529652 34.13123905 462.36830265 33.43549274 462.37139988 32.71866322 C462.2969574 28.36349105 461.3907545 25.82367129 458.94578648 22.25447559 C458.94578648 21.59447559 458.94578648 20.93447559 458.94578648 20.25447559 C457.77016148 19.79041309 457.77016148 19.79041309 456.57078648 19.31697559 C453.94578648 18.25447559 453.94578648 18.25447559 451.94578648 17.25447559 C449.47490248 17.15527001 447.03212764 17.11704217 444.56090164 17.12304783 C443.78681679 17.12099519 443.01273193 17.11894256 442.21518996 17.11682773 C439.59393499 17.11112584 436.97273203 17.11261888 434.3514719 17.1140337 C432.46415007 17.11145189 430.57682878 17.10843925 428.68950826 17.1050303 C423.48175649 17.09693542 418.27401849 17.09516935 413.06626117 17.09443283 C407.4581009 17.09258659 401.84994785 17.08504146 396.24179173 17.07829762 C383.96923953 17.06469625 371.69669059 17.05868681 359.42413211 17.05428696 C351.76654252 17.05152765 344.1089542 17.04729088 336.45136547 17.04278278 C315.26532119 17.0305879 294.079278 17.02025353 272.89323044 17.01690769 C271.5226871 17.01668606 270.15214377 17.01646427 268.78160043 17.01624234 C267.40770884 17.0160217 266.03381724 17.01580122 264.65992564 17.01558089 C261.9035687 17.01513833 259.14721177 17.01469122 256.39085484 17.01424122 C255.70743645 17.01413183 255.02401806 17.01402244 254.31989003 17.01390973 C232.15436124 17.01027818 209.98886513 16.994355 187.82334886 16.97105085 C164.399557 16.94646874 140.97578906 16.93274234 117.55198175 16.93153977 C104.77898262 16.93062164 92.00602628 16.92483455 79.2330389 16.90672016 C68.35817772 16.89135242 57.48337256 16.88617899 46.60850259 16.89445826 C41.05657152 16.89837656 35.50475336 16.89737789 29.95283604 16.88340092 C24.87441058 16.87073249 19.79618371 16.871797 14.71775881 16.88399163 C12.87655555 16.88596093 11.03533856 16.88281382 9.19415464 16.87414727 C6.69859066 16.86314045 4.20373815 16.87048135 1.70819473 16.8825388 C0.62656956 16.87114601 0.62656956 16.87114601 -0.47690663 16.85952306 C-4.883903 16.905745 -7.44784186 17.76564465 -11.05421352 20.25447559 C-11.71421352 20.25447559 -12.37421352 20.25447559 -13.05421352 20.25447559 C-13.36358852 21.03822559 -13.67296352 21.82197559 -13.99171352 22.62947559 C-15.05421352 25.25447559 -15.05421352 25.25447559 -16.05421352 27.25447559 C-16.15429636 28.65987218 -16.1935857 30.06984569 -16.20138454 31.47877979 C-16.20853985 32.36475849 -16.21569515 33.25073719 -16.22306728 34.16356373 C-16.22575619 35.13812519 -16.22844509 36.11268665 -16.23121548 37.11678028 C-16.23778667 38.14131306 -16.24435787 39.16584583 -16.2511282 40.22142506 C-16.2708917 43.62306759 -16.2825308 47.0246659 -16.29249477 50.42635059 C-16.2965703 51.58647915 -16.30064583 52.7466077 -16.30484486 53.94189167 C-16.32571892 60.08254285 -16.34001469 66.22317159 -16.34937954 72.36385059 C-16.36044487 78.71047863 -16.39484279 85.05675614 -16.43455124 91.40326023 C-16.46068322 96.27944566 -16.46906838 101.15554716 -16.47266102 106.03179646 C-16.47753604 108.37137436 -16.48917591 110.7109483 -16.50769901 113.05045795 C-16.53201625 116.32545279 -16.53113856 119.59953551 -16.52418423 122.87459278 C-16.54339931 124.32428959 -16.54339931 124.32428959 -16.56300259 125.8032732 C-16.51803608 131.61370294 -15.85474101 134.79322339 -12.05421352 139.25447559 C-8.290785 142.56173096 -5.15824278 143.37947209 -0.21685123 143.37917423 C1.28708504 143.38276066 1.28708504 143.38276066 2.82140386 143.38641953 C3.9259569 143.38398704 5.03050994 143.38155455 6.16853428 143.37904835 C7.33954925 143.3804585 8.51056422 143.38186864 9.7170645 143.38332152 C12.97289726 143.38634676 16.22869461 143.38494048 19.48452616 143.38178897 C22.99380671 143.37952068 26.5030813 143.38306388 30.01236057 143.38611317 C35.30636699 143.39020543 40.60036888 143.39244284 45.89437689 143.39252916 C56.29602497 143.39273176 66.69762636 143.40518373 77.09925938 143.42213917 C78.73610189 143.42474498 80.37294442 143.42734379 82.00978696 143.42993569 C84.49054124 143.43387415 86.97129551 143.43782066 89.45204972 143.44179691 C98.80705649 143.45674621 108.16206469 143.47036946 117.51707554 143.48250294 C118.37237392 143.4836165 119.2276723 143.48473006 120.10888882 143.48587736 C133.97279288 143.50345701 147.83666777 143.50632116 161.70058112 143.50465253 C175.92873656 143.50337419 190.15678323 143.52109092 204.38489687 143.5556705 C213.1642321 143.57634048 221.94330703 143.58164295 230.72265615 143.56734219 C236.73770235 143.55889291 242.75254588 143.56858875 248.76754926 143.5926517 C252.23965939 143.60597943 255.71128362 143.61111382 259.18339062 143.59453106 C262.94575984 143.58074675 266.7067857 143.59745499 270.46907139 143.62196827 C271.56916298 143.61061289 272.66925458 143.59925751 273.80268228 143.58755803 C281.17127464 143.68130274 281.17127464 143.68130274 285.12401867 146.6065073 C286.94578648 149.25447559 286.94578648 149.25447559 287.57078648 152.25447559 C286.69123983 156.4762995 285.42481001 157.68125853 281.94578648 160.25447559 C278.11821239 161.00458772 274.33683178 160.92442682 270.44697666 160.88266468 C269.27031913 160.88975907 268.0936616 160.89685346 266.88134778 160.90416282 C263.61849829 160.91872134 260.35659127 160.91084574 257.09378386 160.89343989 C253.57347911 160.88007394 250.05328456 160.89550057 246.53299046 160.90726185 C239.63637207 160.92565215 232.74003682 160.91711551 225.84342723 160.89917362 C220.23530583 160.88514772 214.62726129 160.88125481 209.01912403 160.8846159 C208.22089803 160.88509334 207.42267204 160.88557078 206.60025737 160.88606269 C204.97859507 160.88708904 203.35693278 160.8881444 201.73527052 160.88922846 C187.38969581 160.89779919 173.04425764 160.88111219 158.69871616 160.85139942 C144.79078012 160.82259353 130.88304103 160.81546262 116.97508335 160.83089161 C101.82600263 160.84767449 86.67701548 160.8516642 71.52793229 160.83418125 C69.91040271 160.83233692 68.29287312 160.83050219 66.67534351 160.82867718 C65.87953842 160.82776509 65.08373332 160.826853 64.26381292 160.82591327 C58.66839668 160.82031834 53.07302624 160.82360561 47.4776125 160.83022213 C40.64955288 160.83797565 33.82168675 160.83113144 26.99366598 160.80604709 C23.51276401 160.79359479 20.03216258 160.78735282 16.5512495 160.79858875 C12.76935197 160.80730601 8.98832324 160.79128633 5.20649815 160.76913929 C4.11746594 160.77738006 3.02843374 160.78562082 1.90640056 160.79411131 C-8.25630289 160.68463081 -16.88960988 158.2545463 -24.33546352 151.11385059 C-31.70312578 143.1433796 -33.35436124 136.17187483 -33.34474087 125.43489552 C-33.35145809 124.35607609 -33.35817532 123.27725666 -33.36509609 122.16574574 C-33.38406707 118.60543153 -33.3879999 115.04530593 -33.39015102 111.48494434 C-33.39657964 109.00401196 -33.40330805 106.52308034 -33.41032314 104.04214954 C-33.42229372 98.84296887 -33.42600419 93.64385462 -33.42481899 88.44466114 C-33.42461584 81.79347019 -33.45191562 75.14285638 -33.48636341 68.491745 C-33.50863764 63.36751836 -33.51265636 58.2433945 -33.51159954 53.11912441 C-33.51395477 50.66760059 -33.52277385 48.21607391 -33.53826427 45.76459789 C-33.55793355 42.33017679 -33.55208158 38.89667626 -33.54005337 35.46223927 C-33.55129238 34.4567403 -33.56253139 33.45124134 -33.57411098 32.41527271 C-33.49332114 23.3040113 -30.38824353 14.95732254 -24.05421352 8.25447559 C-16.66421912 2.21444251 -9.55817459 -0.05832133 0 0 Z " fill="#000000" transform="translate(33.054213523864746,131.7455244064331)"/>
<path d="M0 0 C11.24171604 9.89271012 19.16029013 23.5237622 21.6875 38.375 C21.90167307 42.65116489 21.86509152 46.93813909 21.7265625 51.21679688 C21.75812804 53.81898108 21.86964251 55.90084717 22.6875 58.375 C24.57930741 60.11491439 26.43314321 61.18243445 28.71875 62.34790039 C31.20428949 63.64460979 32.54013283 65.21024857 34.125 67.5 C34.59808594 68.16257812 35.07117188 68.82515625 35.55859375 69.5078125 C38.19583675 73.86975767 37.84903165 78.29484487 37.86450195 83.2175293 C37.87107315 84.12195267 37.87764435 85.02637604 37.88441467 85.95820618 C37.90414538 88.95521121 37.91581074 91.9521661 37.92578125 94.94921875 C37.92985678 95.97354319 37.9339323 96.99786762 37.93813133 98.05323219 C37.95899264 103.47648543 37.97329324 108.89971336 37.98266602 114.32299805 C37.99372121 119.91722895 38.02811089 125.51106108 38.06783772 131.10515118 C38.09401974 135.41267116 38.10235935 139.72009643 38.10594749 144.02768898 C38.11081054 146.08929953 38.12241644 148.15090593 38.14098549 150.21243858 C38.16540684 153.10377686 38.16440615 155.99408759 38.1574707 158.88549805 C38.17668579 160.15373917 38.17668579 160.15373917 38.19628906 161.44760132 C38.13696037 168.26231213 36.22150159 173.43063378 31.7578125 178.6171875 C31.11585938 179.15601563 30.47390625 179.69484375 29.8125 180.25 C29.17570313 180.80429687 28.53890625 181.35859375 27.8828125 181.9296875 C21.60017718 186.06594207 14.99832688 185.67136484 7.75048828 185.66552734 C6.55301971 185.67224457 5.35555115 185.67896179 4.12179565 185.68588257 C0.84895111 185.70159247 -2.42374086 185.70823563 -5.69661856 185.70951414 C-7.74469804 185.71093925 -9.7927512 185.71521561 -11.84082413 185.72050858 C-18.99529958 185.73899046 -26.14970069 185.74718142 -33.30419922 185.74560547 C-39.95828888 185.74440427 -46.61205408 185.76550681 -53.26606166 185.7970928 C-58.99196573 185.8232982 -64.71776408 185.833971 -70.44372761 185.83269465 C-73.85785355 185.8321863 -77.27169084 185.83779844 -80.68575668 185.85905075 C-84.49634393 185.87867288 -88.3060982 185.87288647 -92.11669922 185.86083984 C-93.23800232 185.87207886 -94.35930542 185.88331787 -95.5145874 185.89489746 C-103.58631339 185.83014206 -108.87432504 184.26619258 -115.0625 179.0625 C-120.95329486 172.0262728 -122.45885106 166.03831294 -122.48950195 157.00146484 C-122.49607315 156.15862946 -122.50264435 155.31579407 -122.50941467 154.44741821 C-122.52911081 151.660257 -122.54080376 148.87314965 -122.55078125 146.0859375 C-122.55485678 145.13122181 -122.5589323 144.17650612 -122.56313133 143.19285965 C-122.5839791 138.1368761 -122.59828488 133.08091956 -122.60766602 128.02490234 C-122.61871123 122.81987142 -122.65309312 117.61527025 -122.69283772 112.41039085 C-122.7190703 108.39359784 -122.72736387 104.37690607 -122.73094749 100.36003494 C-122.73579842 98.44242077 -122.74736948 96.52481067 -122.76598549 94.60728073 C-122.96266896 73.00033437 -122.96266896 73.00033437 -116.05859375 64.6484375 C-115.29675781 64.02195312 -114.53492188 63.39546875 -113.75 62.75 C-112.60337891 61.77160156 -112.60337891 61.77160156 -111.43359375 60.7734375 C-109.3125 59.375 -109.3125 59.375 -106.3125 59.375 C-106.36470703 57.88613281 -106.36470703 57.88613281 -106.41796875 56.3671875 C-106.92515832 35.5955864 -101.30420974 18.0268949 -87 2.625 C-62.63588265 -20.41617885 -25.77745325 -20.11819004 0 0 Z M-71.3125 11.375 C-71.93769531 11.83777344 -72.56289063 12.30054688 -73.20703125 12.77734375 C-82.94957477 20.43977994 -88.4128968 32.34417972 -90.3125 44.375 C-90.3125 48.665 -90.3125 52.955 -90.3125 57.375 C-58.6325 57.375 -26.9525 57.375 5.6875 57.375 C5.6875 39.98982953 4.63924907 29.24487718 -6.75 16.6875 C-8.0184375 15.5428125 -8.0184375 15.5428125 -9.3125 14.375 C-9.80105469 13.89417969 -10.28960937 13.41335937 -10.79296875 12.91796875 C-20.44601506 3.86107257 -32.75812658 0.84168097 -45.6484375 1.0625 C-55.44924408 1.89838969 -63.62461614 5.34854487 -71.3125 11.375 Z M-105.3125 77.375 C-106.5275439 81.02013171 -106.46006257 84.36854675 -106.45776367 88.16357422 C-106.46112228 88.95577362 -106.4644809 89.74797302 -106.46794128 90.56417847 C-106.47744902 93.18603071 -106.47939434 95.80781908 -106.48046875 98.4296875 C-106.48368158 100.25188219 -106.48704567 102.07407661 -106.49055481 103.89627075 C-106.49654572 107.71779987 -106.49839476 111.53930636 -106.49780273 115.36083984 C-106.49770114 120.25574057 -106.51135046 125.15049614 -106.52857494 130.04536247 C-106.53969833 133.80975001 -106.54172183 137.5741025 -106.54119301 141.33850479 C-106.54237272 143.14300156 -106.54679403 144.94749924 -106.55452538 146.75197983 C-106.56433155 149.27730191 -106.56144471 151.80230949 -106.55541992 154.32763672 C-106.56103943 155.07170776 -106.56665894 155.81577881 -106.57244873 156.58239746 C-106.548091 160.60379209 -106.27392125 163.82458475 -104.3125 167.375 C-101.08620701 169.52586199 -100.22323183 169.62795231 -96.50564575 169.64242554 C-95.51587738 169.65095551 -94.52610901 169.65948547 -93.50634766 169.66827393 C-92.42160156 169.66736755 -91.33685547 169.66646118 -90.21923828 169.66552734 C-89.07591034 169.67224457 -87.9325824 169.67896179 -86.75460815 169.68588257 C-82.96396575 169.70492624 -79.1734998 169.70879 -75.3828125 169.7109375 C-72.75348842 169.71736098 -70.12416508 169.724089 -67.49484253 169.73110962 C-61.97848355 169.74390269 -56.46217259 169.7468743 -50.94580078 169.74560547 C-44.57288647 169.74440421 -38.20031093 169.76550195 -31.82748234 169.7970928 C-25.69413874 169.82641158 -19.56095749 169.83358118 -13.42754745 169.83238602 C-10.81920869 169.83474931 -8.21086754 169.8436135 -5.60257339 169.85905075 C-1.95627867 169.87861022 1.68914089 169.87291127 5.33544922 169.86083984 C6.41614685 169.87207886 7.49684448 169.88331787 8.61029053 169.89489746 C12.90634293 169.85869172 15.94479631 169.72836787 19.85656738 167.86720276 C22.43252976 164.36089102 22.38806103 161.20348671 22.33447266 157.01391602 C22.34323425 156.17280273 22.35199585 155.33168945 22.36102295 154.46508789 C22.38302185 151.6858352 22.36846167 148.908175 22.3515625 146.12890625 C22.35493082 144.19603673 22.35978357 142.26316928 22.36605835 140.33030701 C22.3734306 136.27916297 22.36271399 132.22857019 22.33935547 128.17749023 C22.31088657 122.98740719 22.3272575 117.79861792 22.35721779 112.6085825 C22.37529751 108.61677833 22.3695293 104.62528017 22.35657883 100.63346672 C22.35324569 98.7201211 22.35732865 96.8067476 22.36897659 94.89343452 C22.38169438 92.21670251 22.3622957 89.54205544 22.33447266 86.86547852 C22.34459381 86.07622482 22.35471497 85.28697113 22.36514282 84.47380066 C22.29448029 80.79950026 21.78123402 78.52749106 19.84884644 75.38378906 C15.13237481 72.38683925 10.94247572 72.68387609 5.45898438 72.74389648 C3.75818474 72.73316353 3.75818474 72.73316353 2.02302551 72.72221375 C-1.72464293 72.70530647 -5.47111867 72.7247431 -9.21875 72.74609375 C-11.8227956 72.74526525 -14.42684116 72.74280659 -17.03088379 72.73878479 C-22.48833953 72.73426705 -27.94545217 72.75011327 -33.40283203 72.77807617 C-39.70653762 72.81012711 -46.00962452 72.8101116 -52.31337404 72.7928614 C-58.38484256 72.77698087 -64.45604852 72.78383733 -70.5275116 72.80079842 C-73.10792026 72.80598442 -75.68834673 72.80549339 -78.26875305 72.79925346 C-81.87422096 72.79380784 -85.47863635 72.81415786 -89.08398438 72.84155273 C-90.68629158 72.83176392 -90.68629158 72.83176392 -92.32096863 72.82177734 C-99.65666887 72.91391619 -99.65666887 72.91391619 -105.3125 77.375 Z " fill="#000000" transform="translate(458.3125,194.625)"/>
<path d="M0 0 C4.17446964 0.86968118 5.41688326 2.23065651 8 5.625 C8.74357228 9.06025987 8.79020097 12.43159627 8.8125 15.9375 C8.83763672 16.86884766 8.86277344 17.80019531 8.88867188 18.75976562 C8.94735998 21.04860186 8.98377168 23.33553426 9 25.625 C10.08539063 24.9753125 11.17078125 24.325625 12.2890625 23.65625 C13.73397737 22.81181923 15.17931224 21.96810687 16.625 21.125 C17.33785156 20.69574219 18.05070312 20.26648438 18.78515625 19.82421875 C23.00645801 17.38438379 25.98029843 15.95919756 31 16.625 C33.3125 17.6875 33.3125 17.6875 35 19.625 C35.81388029 22.82238685 36.35333423 25.32504647 35.4765625 28.55078125 C33.15848521 31.80712793 29.92518552 33.40951971 26.5 35.375 C25.81035156 35.78621094 25.12070312 36.19742188 24.41015625 36.62109375 C19.29054194 39.625 19.29054194 39.625 17 39.625 C17 40.285 17 40.945 17 41.625 C18.30710937 42.01365234 18.30710937 42.01365234 19.640625 42.41015625 C23.02615232 43.63445741 25.7266987 45.1207388 28.75 47.0625 C30.16539062 47.95775391 30.16539062 47.95775391 31.609375 48.87109375 C34 50.625 34 50.625 36 53.625 C36.22022294 56.42578401 35.85075854 58.95039309 35 61.625 C32.875 63.6875 32.875 63.6875 30 64.625 C24.21314116 64.28749183 20.37794128 62.51291323 15.5625 59.5625 C14.92634766 59.18544922 14.29019531 58.80839844 13.63476562 58.41992188 C12.08367098 57.49859498 10.54092657 56.56323407 9 55.625 C8.99589111 56.20467529 8.99178223 56.78435059 8.98754883 57.3815918 C8.95450723 60.02624109 8.88385736 62.66861839 8.8125 65.3125 C8.80669922 66.22451172 8.80089844 67.13652344 8.79492188 68.07617188 C8.64371608 72.69634888 8.5055136 74.96073006 5.63671875 78.73046875 C3 80.625 3 80.625 0 81.25 C-4.17446964 80.38031882 -5.41688326 79.01934349 -8 75.625 C-8.74357228 72.18974013 -8.79020097 68.81840373 -8.8125 65.3125 C-8.83763672 64.38115234 -8.86277344 63.44980469 -8.88867188 62.49023438 C-8.94735998 60.20139814 -8.98377168 57.91446574 -9 55.625 C-10.07378906 56.28628906 -11.14757812 56.94757813 -12.25390625 57.62890625 C-13.68951374 58.4827643 -15.12574514 59.33557399 -16.5625 60.1875 C-17.26697266 60.62513672 -17.97144531 61.06277344 -18.69726562 61.51367188 C-22.48301436 63.7292944 -24.4105538 64.64737658 -28.91015625 64.4765625 C-33.37275835 63.2466671 -33.37275835 63.2466671 -35 60.625 C-36.01918981 57.27623349 -36.35426815 55.44284579 -34.94921875 52.19921875 C-32.46232287 48.91492139 -29.49974532 47.22226936 -25.9375 45.3125 C-25.30005859 44.95349609 -24.66261719 44.59449219 -24.00585938 44.22460938 C-19.30675595 41.625 -19.30675595 41.625 -17 41.625 C-17 40.965 -17 40.305 -17 39.625 C-17.72058594 39.35300781 -18.44117188 39.08101562 -19.18359375 38.80078125 C-25.33446371 36.23294233 -32.86358885 32.74846939 -36 26.625 C-36 22.8112249 -35.84985071 20.60075452 -33.3125 17.6875 C-30.20986747 16.26196613 -28.42262898 16.27284511 -25 16.625 C-22.0588713 17.88062876 -19.3615209 19.47714926 -16.625 21.125 C-15.88894531 21.55425781 -15.15289062 21.98351562 -14.39453125 22.42578125 C-12.58955456 23.48063776 -10.79381282 24.55126881 -9 25.625 C-8.99383667 24.75548706 -8.99383667 24.75548706 -8.98754883 23.8684082 C-8.95450723 21.22375891 -8.88385736 18.58138161 -8.8125 15.9375 C-8.80669922 15.02548828 -8.80089844 14.11347656 -8.79492188 13.17382812 C-8.64371608 8.55365112 -8.5055136 6.28926994 -5.63671875 2.51953125 C-3 0.625 -3 0.625 0 0 Z " fill="#000000" transform="translate(280,171.375)"/>
<path d="M0 0 C3.1850357 1.76015131 3.83296972 2.49890916 5 6 C5.14573058 7.47965926 5.24663268 8.96403843 5.31640625 10.44921875 C5.35830078 11.29677734 5.40019531 12.14433594 5.44335938 13.01757812 C5.48267578 13.89865234 5.52199219 14.77972656 5.5625 15.6875 C5.60568359 16.58017578 5.64886719 17.47285156 5.69335938 18.39257812 C5.79935353 20.59490108 5.90142051 22.79733473 6 25 C7.25103516 24.15115234 7.25103516 24.15115234 8.52734375 23.28515625 C20.31191605 15.51186769 20.31191605 15.51186769 28 16 C30.63132794 17.77614636 31.58652633 19.08445115 32.875 21.9375 C33.05135955 24.84743265 32.40501142 26.44543378 31 29 C27.15966861 32.72032103 19.5431141 39 14 39 C14 39.66 14 40.32 14 41 C14.69738281 41.26425781 15.39476562 41.52851563 16.11328125 41.80078125 C29.00018259 47.15433837 29.00018259 47.15433837 32.29296875 51.83984375 C33.22002166 54.68322079 33.01611872 56.92746575 32.375 59.8125 C30.73076091 62.42833492 29.98482245 63.19329123 27 64 C21.2073249 63.62283565 17.38774282 61.89391862 12.5625 58.9375 C11.92634766 58.56044922 11.29019531 58.18339844 10.63476562 57.79492188 C9.08367098 56.87359498 7.54092657 55.93823407 6 55 C5.96261719 56.31355469 5.92523438 57.62710938 5.88671875 58.98046875 C5.82104343 60.71617364 5.75459663 62.45184947 5.6875 64.1875 C5.66494141 65.05181641 5.64238281 65.91613281 5.61914062 66.80664062 C5.41613371 71.62344103 5.15704637 75.11020707 2 79 C-0.88861709 80.44430855 -2.79647701 80.37688506 -6 80 C-8.91798113 77.92986884 -10.72064684 76.2930613 -11.49389648 72.71386719 C-11.71591498 70.02929985 -11.7953679 67.38104652 -11.8125 64.6875 C-11.83763672 63.75615234 -11.86277344 62.82480469 -11.88867188 61.86523438 C-11.94735998 59.57639814 -11.98377168 57.28946574 -12 55 C-13.0621875 55.66128906 -14.124375 56.32257813 -15.21875 57.00390625 C-16.6451693 57.85788096 -18.07229054 58.71068398 -19.5 59.5625 C-20.54414063 60.21895508 -20.54414063 60.21895508 -21.609375 60.88867188 C-26.89423707 63.99597503 -30.01610335 64.51384139 -36 63 C-38.73469909 60.18243124 -38.96648737 58.46079861 -39.25 54.5625 C-37.38743676 49.25419477 -33.75786267 47.65858027 -29 45 C-28.31292969 44.58363281 -27.62585938 44.16726562 -26.91796875 43.73828125 C-22.35416667 41 -22.35416667 41 -20 41 C-20 40.34 -20 39.68 -20 39 C-21.02867187 38.61908203 -21.02867187 38.61908203 -22.078125 38.23046875 C-25.45794834 36.80714743 -28.57139001 35.14271774 -31.75 33.3125 C-32.89984375 32.66925781 -34.0496875 32.02601563 -35.234375 31.36328125 C-38 29 -38 29 -38.97265625 25.41015625 C-39.00352673 21.56016599 -38.37021791 19.98471885 -36 17 C-33.08159535 15.54079768 -31.26671064 15.6695741 -28 16 C-25.05846832 17.25466806 -22.36150199 18.85216064 -19.625 20.5 C-18.88894531 20.92925781 -18.15289062 21.35851562 -17.39453125 21.80078125 C-15.58955456 22.85563776 -13.79381282 23.92626881 -12 25 C-11.9906543 24.38479492 -11.98130859 23.76958984 -11.97167969 23.13574219 C-11.91788915 20.33968914 -11.83426181 17.5452938 -11.75 14.75 C-11.72873047 13.29787109 -11.72873047 13.29787109 -11.70703125 11.81640625 C-11.46046917 4.66610605 -11.46046917 4.66610605 -9.171875 1.35546875 C-5.97388911 -0.64039654 -3.68920346 -0.46115043 0 0 Z " fill="#000000" transform="translate(187,172)"/>
<path d="M0 0 C2.90717073 2.21863029 3.83981643 3.51944929 5 7 C5.08021999 8.40824893 5.10765977 9.81997231 5.09765625 11.23046875 C5.09443359 12.03291016 5.09121094 12.83535156 5.08789062 13.66210938 C5.07532227 14.91217773 5.07532227 14.91217773 5.0625 16.1875 C5.05798828 17.03248047 5.05347656 17.87746094 5.04882812 18.74804688 C5.03705403 20.83206155 5.0191189 22.91603977 5 25 C6.07378906 24.3503125 7.14757812 23.700625 8.25390625 23.03125 C9.68963577 22.18670322 11.12586023 21.34299744 12.5625 20.5 C13.26697266 20.07074219 13.97144531 19.64148438 14.69726562 19.19921875 C19.29452361 16.52984315 22.53767482 15.34452098 28 16 C30.4375 17.5 30.4375 17.5 32 20 C32.9594114 24.95695892 32.9594114 24.95695892 32 28 C28.0047712 32.52230384 22.08182135 35.19631835 16.78515625 37.921875 C14.83642782 38.88178258 14.83642782 38.88178258 14 41 C14.71929687 41.26941406 15.43859375 41.53882813 16.1796875 41.81640625 C18.99564064 42.99817052 21.50910576 44.36556355 24.125 45.9375 C24.97320312 46.44152344 25.82140625 46.94554687 26.6953125 47.46484375 C28.79638237 48.86436995 30.43954883 50.02210329 32 52 C32.39309578 55.09562931 32.62338668 57.04336605 32 60 C29.9375 62.5625 29.9375 62.5625 27 64 C21.22245118 63.71953647 17.36223843 61.87829212 12.5625 58.9375 C11.92634766 58.56044922 11.29019531 58.18339844 10.63476562 57.79492188 C9.08367098 56.87359498 7.54092657 55.93823407 6 55 C5.95101562 56.24136719 5.90203125 57.48273438 5.8515625 58.76171875 C5.77650201 60.40366694 5.70095561 62.04559297 5.625 63.6875 C5.57859375 64.91243164 5.57859375 64.91243164 5.53125 66.16210938 C5.32197935 70.46959693 5.06754889 74.11482572 3 78 C0.3402643 80.16719206 -1.08837596 79.99534863 -4.5625 79.8125 C-8.04361799 78.98969029 -8.9383759 78.74641194 -11 76 C-11.43237305 73.73168945 -11.43237305 73.73168945 -11.51171875 71.11328125 C-11.56489258 69.7065918 -11.56489258 69.7065918 -11.61914062 68.27148438 C-11.64169922 67.29501953 -11.66425781 66.31855469 -11.6875 65.3125 C-11.72166016 64.32443359 -11.75582031 63.33636719 -11.79101562 62.31835938 C-11.87350538 59.87901947 -11.94265068 57.44003937 -12 55 C-13.0621875 55.66128906 -14.124375 56.32257813 -15.21875 57.00390625 C-16.6451693 57.85788096 -18.07229054 58.71068398 -19.5 59.5625 C-20.54414062 60.21895508 -20.54414062 60.21895508 -21.609375 60.88867188 C-26.90305934 64.00116221 -30.00458373 64.47278704 -36 63 C-38.6192182 60.79003464 -38.92701746 59.42877241 -39.5 56.0625 C-38.82260203 51.91343746 -37.1177838 50.77697342 -34 48 C-31.79539183 46.44316477 -29.51367626 45.05416097 -27.1875 43.6875 C-26.59001953 43.32849609 -25.99253906 42.96949219 -25.37695312 42.59960938 C-23.92186044 41.72655376 -22.46147271 40.86233309 -21 40 C-21.88042969 39.48050781 -22.76085937 38.96101563 -23.66796875 38.42578125 C-24.84137568 37.72173709 -26.0145399 37.01728832 -27.1875 36.3125 C-27.76564453 35.97283203 -28.34378906 35.63316406 -28.93945312 35.28320312 C-32.81439124 32.94072641 -35.99127763 30.44251229 -39 27 C-39.625 24 -39.625 24 -39 21 C-36.67432295 17.85349575 -35.27374992 16.19855514 -31.34375 15.5859375 C-26.7495545 16.15484489 -23.54710207 18.13822787 -19.625 20.5 C-18.88894531 20.92925781 -18.15289062 21.35851562 -17.39453125 21.80078125 C-15.58955456 22.85563776 -13.79381282 23.92626881 -12 25 C-11.9906543 24.38479492 -11.98130859 23.76958984 -11.97167969 23.13574219 C-11.91788915 20.33968914 -11.83426181 17.5452938 -11.75 14.75 C-11.72873047 13.29787109 -11.72873047 13.29787109 -11.70703125 11.81640625 C-11.46043347 4.66507056 -11.46043347 4.66507056 -9.171875 1.359375 C-5.94549026 -0.66001689 -3.72092288 -0.53156041 0 0 Z " fill="#000000" transform="translate(91,172)"/>
<path d="M0 0 C5.77874592 3.73918854 8.86213119 8.44993385 11 15 C12.13416034 22.57421859 11.35907292 29.58212297 7 36 C4.30426584 38.90839068 1.59456865 41.44474842 -2.1875 42.76171875 C-2.785625 43.17035156 -3.38375 43.57898438 -4 44 C-4.55686121 46.98112595 -4.55686121 46.98112595 -4.5 50.375 C-4.55453149 56.41436252 -4.55453149 56.41436252 -6.8125 59.3828125 C-10.00276335 61.74132862 -12.13618005 61.55197428 -16 61 C-18.94541458 58.78828074 -19.88980088 57.55239052 -20.6171875 53.90625 C-20.70226562 52.7821875 -20.78734375 51.658125 -20.875 50.5 C-21.36671696 45.33495925 -21.36671696 45.33495925 -24.75 41.625 C-25.8225 41.08875 -26.895 40.5525 -28 40 C-32.92517601 35.57327554 -35.88786002 30.54451604 -37 24 C-37.2781964 16.53506335 -35.48415228 9.8997745 -30.4609375 4.27734375 C-21.75500909 -3.81241165 -10.59890882 -5.52400756 0 0 Z M-19 16 C-20.658596 18.80896063 -20.658596 18.80896063 -21 22 C-19.46079825 25.56446721 -18.25728341 26.82847773 -15 29 C-10.10242611 28.82666872 -10.10242611 28.82666872 -6.0625 26.3125 C-4.66182462 23.26397123 -4.5157268 21.32073048 -5 18 C-6.93640542 15.34640738 -8.37858623 14.2390053 -11.4375 13.0625 C-14.9128169 12.97773617 -16.34465998 13.77525566 -19 16 Z " fill="#000000" transform="translate(429,287)"/>
</svg>
