<?xml version="1.0" encoding="UTF-8"?>
<svg version="1.1" xmlns="http://www.w3.org/2000/svg" width="512" height="512">
<path d="M0 0 C0.96594086 0.00054382 1.93188171 0.00108765 2.92709351 0.00164795 C18.82427694 0.04267209 34.1070568 0.96742637 49.6875 4.375 C51.16669922 4.69645996 51.16669922 4.69645996 52.67578125 5.02441406 C93.62144938 14.2412142 130.47407042 33.4675562 161.6875 61.375 C162.26983398 61.89416992 162.85216797 62.41333984 163.45214844 62.94824219 C169.94369421 68.76215853 176.11336927 74.66154145 181.6875 81.375 C182.46996094 82.24640625 183.25242187 83.1178125 184.05859375 84.015625 C213.00993644 116.51674278 232.16563537 159.5009304 238.6875 202.375 C238.86265137 203.49511475 239.03780273 204.61522949 239.21826172 205.76928711 C240.8222463 217.07945314 241.08675288 228.27504914 241.0625 239.6875 C241.06168427 241.13641129 241.06168427 241.13641129 241.06085205 242.61459351 C241.01982791 258.51177694 240.09507363 273.7945568 236.6875 289.375 C236.36604004 290.85419922 236.36604004 290.85419922 236.03808594 292.36328125 C221.70457286 356.03996526 182.80470476 409.92594664 128.00927734 444.92431641 C89.70112596 468.85986168 46.44487197 480.8457791 1.375 480.75 C0.40905914 480.74945618 -0.55688171 480.74891235 -1.55209351 480.74835205 C-17.44927694 480.70732791 -32.7320568 479.78257363 -48.3125 476.375 C-49.29863281 476.16069336 -50.28476563 475.94638672 -51.30078125 475.72558594 C-100.16165776 464.72708589 -148.01688546 438.27169619 -180.3125 399.375 C-181.09496094 398.50359375 -181.87742188 397.6321875 -182.68359375 396.734375 C-211.63493644 364.23325722 -230.79063537 321.2490696 -237.3125 278.375 C-237.48765137 277.25488525 -237.66280273 276.13477051 -237.84326172 274.98071289 C-239.4472463 263.67054686 -239.71175288 252.47495086 -239.6875 241.0625 C-239.68695618 240.09655914 -239.68641235 239.13061829 -239.68585205 238.13540649 C-239.64482791 222.23822306 -238.72007363 206.9554432 -235.3125 191.375 C-235.09819336 190.38886719 -234.88388672 189.40273437 -234.66308594 188.38671875 C-223.66458589 139.52584224 -197.20919619 91.67061454 -158.3125 59.375 C-157.44109375 58.59253906 -156.5696875 57.81007812 -155.671875 57.00390625 C-123.17075722 28.05256356 -80.1865696 8.89686463 -37.3125 2.375 C-36.19238525 2.19984863 -35.07227051 2.02469727 -33.91821289 1.84423828 C-22.60804686 0.2402537 -11.41245086 -0.02425288 0 0 Z " fill="#FE5A54" transform="translate(255.3125,15.625)"/>
<path d="M0 0 C1.17368229 1.17368229 2.34395529 2.35092609 3.49910545 3.5428524 C5.20010784 5.24763353 5.20010784 5.24763353 8.13931274 7.43936157 C11.74649838 11.08473827 11.69659929 14.50517214 11.72111511 19.46339417 C11.69632584 20.57939499 11.67153656 21.69539581 11.64599609 22.84521484 C11.64377548 24.03292984 11.64155487 25.22064484 11.63926697 26.4443512 C11.62877934 29.69089433 11.59233329 32.93599047 11.54684019 36.18218946 C11.50754835 39.58834701 11.5086686 42.99443944 11.50747681 46.40078735 C11.4966233 56.52826476 11.42564114 66.65521594 11.33685303 76.7822876 C11.26833222 84.65509659 11.21779365 92.52711119 11.2222811 100.40026057 C11.22252833 103.78703201 11.20654544 107.17208026 11.15235519 110.55845261 C11.09733021 114.33843315 11.09114001 118.1156832 11.09521484 121.89599609 C11.05195824 123.56392464 11.05195824 123.56392464 11.00782776 125.26554871 C11.06836905 131.112339 11.63493564 134.29803793 15.84561157 138.51821899 C17.22411969 139.68627438 18.608718 140.84718935 20 142 C21.14933054 143.24887216 22.27834987 144.51712327 23.375 145.8125 C26.19717497 149.09215082 29.08243085 152.30477699 32 155.5 C34.84524228 158.61907011 37.6719958 161.74755391 40.4375 164.9375 C43.39883619 168.34688705 46.44156852 171.67790175 49.5 175 C53.17955867 178.99805977 56.82464539 183.01918047 60.375 187.1328125 C61.52528851 188.45453825 62.69391115 189.76041097 63.875 191.0546875 C64.49375 191.73789062 65.1125 192.42109375 65.75 193.125 C66.30171875 193.72570312 66.8534375 194.32640625 67.421875 194.9453125 C71.13027762 199.77357927 72.36990153 203.84825873 72.40625 209.90234375 C72.42816406 211.20494141 72.45007813 212.50753906 72.47265625 213.84960938 C72.48344085 215.21222739 72.49254236 216.57485972 72.5 217.9375 C72.2651157 231.04654006 72.2651157 231.04654006 77.9375 242.4375 C83.59909809 245.32607046 89.76365715 245.03599644 95.7578125 243.1171875 C106.88430145 237.97926753 111.9089895 230.01036381 116.1953125 218.90234375 C121.91987055 201.14820743 120.13054635 180.70875765 115.44335938 162.88305664 C114.29568577 158.51579869 113.7116348 155.40191443 115 151 C117.51276698 149.74361651 119.24847108 149.87061418 122.05859375 149.8671875 C123.08533203 149.86589844 124.11207031 149.86460937 125.16992188 149.86328125 C126.24822266 149.86714844 127.32652344 149.87101563 128.4375 149.875 C129.48099609 149.87113281 130.52449219 149.86726562 131.59960938 149.86328125 C137.53276154 149.87064705 143.34109655 150.16798236 149.24243164 150.75976562 C154.15826791 151.1880244 159.06797746 151.2649548 164 151.3125 C165.00289062 151.34150391 166.00578125 151.37050781 167.0390625 151.40039062 C174.70209304 151.46474424 182.64058154 150.43668064 188.85009766 145.54150391 C205.09772132 129.10119827 206.4835844 101.8840919 206.43603516 80.4140625 C206.23215023 58.88566772 201.17439514 37.57255535 190.00390625 19.0390625 C189.67261719 18.36617187 189.34132813 17.69328125 189 17 C189.33 16.34 189.66 15.68 190 15 C194.62120133 20.03634471 199.14437033 25.11708573 203.4375 30.4375 C207.29941675 35.21284402 211.37674224 39.73667685 215.53515625 44.25390625 C217.92707297 46.91875166 220.19254884 49.64831825 222.4375 52.4375 C225.65943101 56.43223986 229.00655495 60.24554349 232.5 64 C236.78955113 68.61004336 240.80410672 73.37782956 244.75390625 78.28515625 C247.0883059 81.10673495 249.51990598 83.80590712 252 86.5 C255.27418423 90.05670244 258.40642433 93.67161811 261.4375 97.4375 C264.65943101 101.43223986 268.00655495 105.24554349 271.5 109 C275.78955113 113.61004336 279.80410672 118.37782956 283.75390625 123.28515625 C286.0883059 126.10673495 288.51990598 128.80590712 291 131.5 C291.82113281 132.40363281 292.64226562 133.30726563 293.48828125 134.23828125 C295.20193388 136.12249962 296.92915014 137.99444912 298.66796875 139.85546875 C299.49941406 140.79003906 300.33085937 141.72460938 301.1875 142.6875 C301.94417969 143.51636719 302.70085937 144.34523438 303.48046875 145.19921875 C306.39046972 150.56289663 304.02991157 156.09394029 302.50390625 161.66015625 C283.48568039 225.64193585 242.62439985 278.14380563 183.8984375 310.41088867 C147.96914631 329.64037608 147.96914631 329.64037608 139.953125 327.4375 C137.20597822 325.41559997 134.7228262 323.15352581 132.25 320.8125 C131.17252422 319.80789698 130.09439955 318.80398947 129.015625 317.80078125 C128.23541992 317.0730249 128.23541992 317.0730249 127.43945312 316.33056641 C125.65747123 314.68338165 123.8366604 313.08585594 122 311.5 C118.0691075 308.0932265 114.24803427 304.56997215 110.421875 301.046875 C107.64505943 298.49444857 104.85019283 295.97016712 102 293.5 C98.0691075 290.0932265 94.24803427 286.56997215 90.421875 283.046875 C87.64505943 280.49444857 84.85019283 277.97016712 82 275.5 C78.0691075 272.0932265 74.24803427 268.56997215 70.421875 265.046875 C67.64505943 262.49444857 64.85019283 259.97016712 62 257.5 C58.0691075 254.0932265 54.24803427 250.56997215 50.421875 247.046875 C47.64505943 244.49444857 44.85019283 241.97016712 42 239.5 C38.0691075 236.0932265 34.24803427 232.56997215 30.421875 229.046875 C27.64505943 226.49444857 24.85019283 223.97016712 22 221.5 C18.0691075 218.0932265 14.24803427 214.56997215 10.421875 211.046875 C7.64505943 208.49444857 4.85019283 205.97016712 2 203.5 C-1.9308925 200.0932265 -5.75196573 196.56997215 -9.578125 193.046875 C-12.35494057 190.49444857 -15.14980717 187.97016712 -18 185.5 C-21.3905078 182.5615599 -24.6996903 179.53885858 -28 176.5 C-31.92264656 172.88849133 -35.88108899 169.32836367 -39.91015625 165.8359375 C-44.32943236 161.95358278 -48.65727465 157.96752665 -53 154 C-49.20741424 152.76362665 -45.63283704 152.95020218 -41.671875 153.04296875 C-40.21746173 153.06536869 -38.76303364 153.08682281 -37.30859375 153.10742188 C-35.03295237 153.14437841 -32.75807954 153.18728857 -30.48291016 153.24682617 C-20.45301074 153.49664638 -13.36818738 153.39215331 -5.25 146.75 C1.00815416 139.10114492 1.57445514 132.85686864 1.4699707 123.25341797 C1.4721611 121.99392334 1.4743515 120.73442871 1.47660828 119.43676758 C1.48199889 116.00284932 1.46269456 112.56947654 1.43850732 109.13565588 C1.41711405 105.53235977 1.41780211 101.92906364 1.41581726 98.32571411 C1.40938293 92.27840873 1.38818522 86.2313066 1.35668945 80.18408203 C1.3163665 72.43203357 1.29899287 64.68011724 1.28938007 56.92797661 C1.28106622 50.24747212 1.26383858 43.56699533 1.24434257 36.88651514 C1.24029965 35.45624195 1.23655917 34.02596788 1.2331202 32.59569311 C1.22179793 27.89300073 1.20160564 23.19043511 1.17700195 18.48779297 C1.17431305 17.30633698 1.17162415 16.12488098 1.16885376 14.90762329 C1.16169846 13.81709656 1.15454315 12.72656982 1.14717102 11.60299683 C1.14289754 10.66025343 1.13862406 9.71751003 1.13422108 8.74619865 C0.98874788 5.76977856 0.54232695 2.92799417 0 0 Z " fill="#DB3A3C" transform="translate(186,158)"/>
<path d="M0 0 C1.17213547 -0.01191879 1.17213547 -0.01191879 2.36795044 -0.02407837 C22.92089681 -0.18468411 43.80368237 2.98352519 60.1875 16.375 C60.86941406 16.89578125 61.55132812 17.4165625 62.25390625 17.953125 C82.89103927 34.59206591 93.24202385 63.81222259 96.1875 89.375 C97.88480257 115.06511544 97.23092506 142.84939955 81.1875 164.375 C76.13145612 170.1149532 69.99583799 172.93955477 62.38647461 173.62866211 C59.35620299 173.70538103 56.3430387 173.6863004 53.3125 173.625 C52.30058594 173.61984375 51.28867187 173.6146875 50.24609375 173.609375 C45.39470286 173.55968086 40.61192038 173.35701267 35.78515625 172.86328125 C29.35492676 172.22349771 22.95631533 172.26537361 16.5 172.3125 C15.30955078 172.31701172 14.11910156 172.32152344 12.89257812 172.32617188 C9.99083064 172.33782548 7.08919374 172.35418441 4.1875 172.375 C4.7133814 177.82483273 5.46009265 183.09214098 6.6875 188.4375 C11.45536719 209.24924027 12.06611146 233.09589122 0.87890625 251.9375 C-3.89893367 258.82288594 -9.52873961 264.27160003 -17.8125 266.375 C-22.77671929 267.11380026 -27.47937705 267.55776372 -32.0625 265.234375 C-36.05608783 262.07278464 -37.42302262 259.29509877 -38.8125 254.375 C-39.06787109 251.05102539 -39.06787109 251.05102539 -39.0859375 247.47265625 C-39.1065625 246.17005859 -39.1271875 244.86746094 -39.1484375 243.52539062 C-39.17099802 241.48047547 -39.18750457 239.43590297 -39.19335938 237.39086914 C-39.24597493 226.45604113 -40.27929587 220.82536655 -47.8125 212.75 C-48.59367187 211.904375 -49.37484375 211.05875 -50.1796875 210.1875 C-51.04851562 209.259375 -51.91734375 208.33125 -52.8125 207.375 C-54.85699367 205.16927721 -56.89695203 202.95937258 -58.9375 200.75 C-59.45489746 200.19119141 -59.97229492 199.63238281 -60.50537109 199.05664062 C-63.7436836 195.55408182 -66.91824507 192.00640692 -70.0390625 188.3984375 C-72.26388092 185.85998829 -74.53753319 183.36858224 -76.8125 180.875 C-83.87797 173.12852085 -83.87797 173.12852085 -86.84437561 169.50248718 C-88.76620825 167.28176887 -88.76620825 167.28176887 -91.30101013 165.59284973 C-96.77531147 161.13573372 -98.97461298 157.41648842 -99.72463989 150.47982788 C-100.14190673 143.52623783 -100.09248755 136.57240345 -99.99543691 129.61033225 C-99.95701748 126.07103408 -99.97654178 122.53204385 -99.98985291 118.99263 C-100.00655309 112.29895432 -99.97356113 105.60652695 -99.92153114 98.91306955 C-99.85885558 90.56380178 -99.85684711 82.21469913 -99.85742188 73.86523438 C-99.85751096 70.93642662 -99.85729529 68.00761932 -99.85655212 65.07881165 C-99.85639695 64.36916773 -99.85624178 63.65952382 -99.8560819 62.92837554 C-99.85360663 58.72424149 -99.83979988 54.52033202 -99.81512368 50.31627023 C-99.80349522 48.332157 -99.79399646 46.34803166 -99.7845459 44.36390686 C-99.77246674 41.95003839 -99.75645259 39.536185 -99.73570251 37.12237549 C-99.73103973 36.05301254 -99.72637695 34.9836496 -99.72157288 33.88188171 C-99.71503724 32.95778346 -99.70850161 32.03368521 -99.70176792 31.08158398 C-99.82318674 28.11378787 -100.26944294 25.29268558 -100.8125 22.375 C-80.86559881 14.06617147 -61.02073891 7.60970564 -39.8125 3.375 C-39.01279785 3.20838867 -38.2130957 3.04177734 -37.38916016 2.87011719 C-24.98696013 0.36844143 -12.60721627 0.0672824 0 0 Z " fill="#FEFEFE" transform="translate(296.8125,136.625)"/>
<path d="M0 0 C2.2476891 -0.00435505 4.49338275 -0.04065645 6.74072266 -0.07861328 C14.53908857 -0.13918753 21.20102101 0.15033744 28.01806641 4.37060547 C29.37931641 5.17498047 29.37931641 5.17498047 30.76806641 5.99560547 C37.78179887 13.39898973 38.7475686 21.49068442 38.64916992 31.3125 C38.65632523 32.5690741 38.66348053 33.82564819 38.67085266 35.12030029 C38.68478167 38.53804509 38.67651962 41.95425673 38.65676236 45.37187433 C38.6402665 48.96357148 38.64920351 52.55522293 38.65428162 56.14694214 C38.6587893 62.17393467 38.6430127 68.2006155 38.61499023 74.22753906 C38.58291493 81.17940185 38.58296951 88.13070368 38.600205 95.08260643 C38.61610653 101.79424593 38.60931523 108.50568122 38.59226799 115.21731186 C38.58542469 118.06324629 38.58640161 120.90901571 38.59381294 123.75494766 C38.60294565 127.7326802 38.57886234 131.70984338 38.55151367 135.6875 C38.55803955 136.85862335 38.56456543 138.0297467 38.57128906 139.23635864 C38.47458147 147.52343768 37.15584716 152.84060213 31.51806641 159.18310547 C23.3863166 166.29838655 16.65271447 166.76972984 6.09106445 166.79614258 C3.85400951 166.8079814 1.61976972 166.85714948 -0.61669922 166.90771484 C-9.92324964 167.01367017 -17.78927641 166.18291088 -24.90844727 159.58520508 C-29.56945405 154.69132876 -31.22333966 149.43428401 -31.25608826 142.69168091 C-31.26606339 141.58432587 -31.27603851 140.47697083 -31.28631592 139.33605957 C-31.28698059 138.1359021 -31.28764526 136.93574463 -31.28833008 135.69921875 C-31.29665359 134.42372162 -31.30497711 133.14822449 -31.31355286 131.83407593 C-31.33542785 128.34639308 -31.34428705 124.85879786 -31.3493793 121.37105417 C-31.35303061 119.18896742 -31.3592746 117.00690335 -31.36638069 114.82482529 C-31.39084905 107.20351917 -31.40392181 99.58228088 -31.4074707 91.9609375 C-31.41110591 84.87054238 -31.44100646 77.78058012 -31.48287529 70.69031727 C-31.51762403 64.5907437 -31.53301991 58.49131333 -31.53371674 52.3916415 C-31.53450788 48.75388492 -31.54317089 45.11656994 -31.5717144 41.47891617 C-31.60285986 37.4192293 -31.59381374 33.36056837 -31.58129883 29.30078125 C-31.59613312 28.10467224 -31.61096741 26.90856323 -31.62625122 25.6762085 C-31.55289143 17.31364683 -29.73140619 12.48549277 -24.13818359 6.34716797 C-23.59162109 5.90115234 -23.04505859 5.45513672 -22.48193359 4.99560547 C-21.93537109 4.53412109 -21.38880859 4.07263672 -20.82568359 3.59716797 C-14.42356203 -0.66187053 -7.3842659 -0.00160145 0 0 Z " fill="#FEFEFE" transform="translate(149.98193359375,145.62939453125)"/>
</svg>
